# Blender v2.93.4 OBJ File: ''
# www.blender.org
mtllib box_marble.mtl
o Cube
v 0.759960 1.220133 0.084667
v 0.759960 0.042900 0.084667
v 0.759960 1.220133 1.261901
v 0.759960 0.042900 1.261901
v -0.417274 1.220133 0.084667
v -0.417274 0.042900 0.084667
v -0.417274 1.220133 1.261901
v -0.417274 0.042900 1.261901
vt 1.000000 0.000000
vt 1.000000 1.000000
vt 0.000000 1.000000
vt 0.000000 0.000000
vt 0.003619 0.004119
vt 0.996381 0.004119
vt 0.996381 0.996881
vt 0.003619 0.996881
vt 1.000000 0.000000
vt 1.000000 1.000000
vt 0.000000 1.000000
vt 1.000000 0.000000
vt 1.000000 1.000000
vt 0.000000 1.000000
vt 0.000000 0.000000
vt 0.000000 0.000000
vt 1.000000 1.000000
vt 0.000000 1.000000
vt 0.000000 0.000000
vt 1.000000 0.000000
vt 1.000000 1.000000
vn 0.0000 0.0000 1.0000
vn 0.0000 0.0000 -1.0000
vn -1.0000 0.0000 0.0000
vn 1.0000 0.0000 0.0000
vn 0.0000 -1.0000 0.0000
vn 0.0000 1.0000 0.0000
usemtl Material
s off
f 4/1/1 3/2/1 7/3/1 8/4/1
f 6/5/2 5/6/2 1/7/2 2/8/2
f 8/4/3 7/9/3 5/10/3 6/11/3
f 2/12/4 1/13/4 3/14/4 4/15/4
f 6/16/5 2/12/5 4/17/5 8/18/5
f 1/19/6 5/20/6 7/21/6 3/14/6
