# Blender v2.93.4 OBJ File: ''
# www.blender.org
mtllib plane.mtl
o Cube.001_Cube.002
v -15.773449 -0.117803 15.773449
v -15.773449 0.117803 15.773449
v -15.773449 -0.117803 -15.773449
v -15.773449 0.117803 -15.773449
v 15.773449 -0.117803 15.773449
v 15.773449 0.117803 15.773449
v 15.773449 -0.117803 -15.773449
v 15.773449 0.117803 -15.773449
vt 0.375000 0.000000
vt 0.625000 0.000000
vt 0.625000 0.250000
vt 0.375000 0.250000
vt 0.625000 0.500000
vt 0.375000 0.500000
vt 0.625000 0.750000
vt 0.375000 0.750000
vt 0.625000 1.000000
vt 0.375000 1.000000
vt 0.000000 0.000000
vt 1.000000 0.000000
vt 1.000000 1.000000
vt 0.000000 1.000000
vt -0.003774 -0.003774
vt 1.003774 -0.003774
vt 1.003774 1.003774
vt -0.003774 1.003774
vn -1.0000 0.0000 0.0000
vn 0.0000 0.0000 -1.0000
vn 1.0000 0.0000 0.0000
vn 0.0000 0.0000 1.0000
vn 0.0000 -1.0000 0.0000
vn 0.0000 1.0000 0.0000
usemtl Material.002
s off
f 1/1/1 2/2/1 4/3/1 3/4/1
f 3/4/2 4/3/2 8/5/2 7/6/2
f 7/6/3 8/5/3 6/7/3 5/8/3
f 5/8/4 6/7/4 2/9/4 1/10/4
f 3/11/5 7/12/5 5/13/5 1/14/5
f 8/15/6 4/16/6 2/17/6 6/18/6
